<?xml version="1.0" standalone="no"?>
<!DOCTYPE svg PUBLIC "-//W3C//DTD SVG 20010904//EN"
 "http://www.w3.org/TR/2001/REC-SVG-20010904/DTD/svg10.dtd">
<svg version="1.0" xmlns="http://www.w3.org/2000/svg"
 width="1000.000000pt" height="1000.000000pt" viewBox="0 0 1000.000000 1000.000000"
 preserveAspectRatio="xMidYMid meet">
<metadata>
Created by potrace 1.11, written by Peter Selinger 2001-2013
</metadata>
<g transform="translate(0.000000,1000.000000) scale(0.100000,-0.100000)"
fill="#000000" stroke="none">
<path d="M1341 7470 c-13 -8 -10 -4938 3 -4943 6 -2 148 -3 316 -3 l305 1 2
750 c1 413 2 759 3 770 0 11 15 36 33 55 17 19 66 73 107 120 41 46 84 94 95
106 20 21 134 147 215 238 49 55 110 122 240 265 47 51 88 98 92 104 4 6 9 9
11 7 2 -3 273 -545 601 -1205 329 -660 600 -1202 603 -1205 2 -2 165 -5 362
-5 l358 0 -11 25 c-12 26 -37 75 -116 225 -26 50 -82 158 -125 240 -43 83
-101 195 -130 250 -29 55 -83 159 -120 230 -148 285 -200 384 -250 480 -29 55
-85 163 -125 240 -159 306 -204 394 -250 480 -51 96 -133 254 -250 480 -40 77
-92 176 -115 220 l-42 80 49 65 c61 81 56 73 238 320 83 113 156 212 163 220
7 8 102 137 212 285 194 263 277 374 315 425 17 23 59 79 374 503 64 88 119
164 122 171 3 8 -81 11 -345 11 -192 0 -352 -2 -354 -5 -2 -3 -31 -41 -63 -84
-60 -80 -172 -231 -209 -280 -52 -69 -348 -464 -365 -486 -17 -23 -308 -411
-355 -474 -11 -15 -92 -123 -180 -240 -88 -117 -169 -225 -180 -240 -11 -15
-38 -51 -60 -80 -22 -29 -48 -63 -58 -77 -10 -13 -86 -114 -168 -224 -83 -110
-187 -248 -231 -307 -44 -60 -83 -108 -86 -108 -4 0 -6 585 -5 1300 1 715 -1
1301 -5 1301 -24 4 -615 3 -621 -1z"/>
<path d="M4840 7467 c0 -5 48 -165 106 -355 59 -191 112 -367 119 -392 11 -37
107 -353 275 -900 16 -52 64 -207 106 -345 42 -137 84 -277 94 -310 10 -33 32
-105 49 -160 16 -55 53 -174 81 -265 28 -91 62 -201 75 -245 13 -44 83 -273
155 -510 72 -236 147 -482 166 -545 19 -63 50 -164 69 -225 19 -60 59 -193 91
-295 31 -102 65 -214 76 -250 11 -36 22 -74 25 -85 2 -11 9 -29 14 -40 10 -20
19 -20 415 -20 l404 0 35 110 c32 104 71 233 187 615 59 197 41 137 245 805
90 297 166 547 168 555 2 8 40 134 85 280 103 335 141 462 175 575 15 50 36
118 47 153 11 34 21 68 22 75 2 6 6 19 9 27 3 8 22 69 42 135 68 229 88 295
215 710 10 33 30 98 45 145 14 47 27 92 30 101 2 9 21 75 43 145 22 71 45 145
50 164 6 19 31 102 56 185 26 82 45 154 43 160 -5 11 -590 15 -601 4 -3 -3
-35 -104 -71 -225 -36 -120 -76 -255 -90 -299 -13 -44 -36 -120 -50 -170 -15
-49 -39 -133 -55 -185 -16 -52 -100 -331 -186 -620 -85 -289 -167 -563 -181
-610 -14 -47 -30 -101 -35 -120 -5 -19 -39 -132 -74 -250 -36 -118 -74 -246
-85 -285 -20 -69 -75 -251 -87 -290 -3 -11 -7 -24 -8 -30 -1 -5 -30 -102 -64
-215 -34 -113 -63 -212 -65 -220 -3 -8 -27 -91 -55 -185 -64 -212 -117 -392
-139 -468 -22 -75 -46 -92 -56 -39 -4 20 -10 41 -13 47 -4 5 -7 15 -8 20 -1 6
-55 192 -119 415 -65 223 -121 419 -125 435 -4 17 -19 68 -33 115 -14 47 -58
198 -97 335 -39 138 -90 311 -111 385 -22 74 -46 158 -54 185 -104 361 -180
622 -196 675 -10 36 -21 74 -24 85 -2 11 -43 153 -90 315 -48 162 -88 302 -90
310 -13 56 -256 885 -261 889 -9 10 -694 7 -694 -2z"/>
</g>
</svg>
