<svg data-v-423bf9ae="" xmlns="http://www.w3.org/2000/svg" viewBox="0 0 92.62646644824308 60" class="font"><!----><!----><defs data-v-423bf9ae=""><linearGradient data-v-423bf9ae="" gradientTransform="rotate(25)" id="0a500866-38f4-43de-837c-a9b987163564" x1="0%" y1="0%" x2="100%" y2="0%"><stop data-v-423bf9ae="" offset="0%" style="stop-color: rgb(65, 15, 248); stop-opacity: 1;"></stop><stop data-v-423bf9ae="" offset="100%" style="stop-color: rgb(65, 15, 248); stop-opacity: 1;"></stop></linearGradient></defs><g data-v-423bf9ae="" id="f53a157b-95dd-43a1-ab89-1257f93cda7f" fill="url(#0a500866-38f4-43de-837c-a9b987163564)" transform="matrix(5.8365760270947415,0,0,5.8365760270947415,-4.260701890186716,-19.26070132635875)"><path d="M6.12 13.55L8.36 13.55L4.73 7.78L8.06 3.30L6.27 3.30L2.86 7.88L2.86 3.30L0.73 3.30C0.74 3.37 0.92 4.13 0.92 4.16L0.92 13.55L2.86 13.55L2.86 8.36ZM13.06 13.58L16.60 3.32L15.05 3.32L13.16 8.85C12.94 9.48 12.75 10.11 12.61 10.77C12.50 10.23 12.38 9.69 12.21 9.17C11.56 7.21 10.88 5.28 10.21 3.32L8.16 3.32L11.69 13.58Z"></path></g><!----><!----></svg>